STARTFONT 2.1
COMMENT Created by fdbbdf
FONT Symbol8
SIZE 8 78 78
FONTBOUNDINGBOX 11 15 -1 -4
STARTPROPERTIES 4
Ownership "  Copyright (c) 1984 Adobe Systems, Inc.  /adobe/fonts/Times/Greek/fontvec.ps TG10.bits  TOTAL BITMAP BYTES 1351  GUIDELINES 0 0 0 0 7 -2 5 DONE  "
FONT_ASCENT 11
FONT_DESCENT 4
DEFAULT_CHAR 32
ENDPROPERTIES
CHARS 95
STARTCHAR similar
ENCODING -1 126
SWIDTH 0 0
DWIDTH 6 0
BBX 5 2 0 1
BITMAP
6800
b000
ENDCHAR
STARTCHAR braceright
ENCODING -1 125
SWIDTH 0 0
DWIDTH 5 0
BBX 3 9 1 -3
BITMAP
8000
4000
4000
4000
2000
4000
4000
4000
8000
ENDCHAR
STARTCHAR bar
ENCODING -1 124
SWIDTH 0 0
DWIDTH 2 0
BBX 1 9 0 -3
BITMAP
8000
8000
8000
8000
8000
8000
8000
8000
8000
ENDCHAR
STARTCHAR braceleft
ENCODING -1 123
SWIDTH 0 0
DWIDTH 5 0
BBX 3 9 1 -3
BITMAP
2000
4000
4000
4000
8000
4000
4000
4000
2000
ENDCHAR
STARTCHAR zeta
ENCODING -1 122
SWIDTH 0 0
DWIDTH 5 0
BBX 4 10 0 -3
BITMAP
8000
b000
6000
8000
8000
8000
8000
6000
1000
7000
ENDCHAR
STARTCHAR psi
ENCODING -1 121
SWIDTH 0 0
DWIDTH 7 0
BBX 7 7 0 -3
BITMAP
9200
5400
5400
5400
3800
1000
1000
ENDCHAR
STARTCHAR xi
ENCODING -1 120
SWIDTH 0 0
DWIDTH 5 0
BBX 4 10 0 -3
BITMAP
8000
b000
4000
7000
8000
8000
8000
6000
1000
7000
ENDCHAR
STARTCHAR omega
ENCODING -1 119
SWIDTH 0 0
DWIDTH 8 0
BBX 7 5 0 -1
BITMAP
4400
8200
9200
9200
6c00
ENDCHAR
STARTCHAR omega1
ENCODING -1 118
SWIDTH 0 0
DWIDTH 8 0
BBX 7 6 0 -1
BITMAP
fe00
4400
8200
9200
9200
6c00
ENDCHAR
STARTCHAR upsilon
ENCODING -1 117
SWIDTH 0 0
DWIDTH 6 0
BBX 5 5 0 -1
BITMAP
5000
c800
4800
4800
3000
ENDCHAR
STARTCHAR tau
ENCODING -1 116
SWIDTH 0 0
DWIDTH 5 0
BBX 4 5 0 -1
BITMAP
f000
4000
4000
5000
6000
ENDCHAR
STARTCHAR sigma
ENCODING -1 115
SWIDTH 0 0
DWIDTH 6 0
BBX 5 5 0 -1
BITMAP
7800
9000
9000
9000
6000
ENDCHAR
STARTCHAR rho
ENCODING -1 114
SWIDTH 0 0
DWIDTH 5 0
BBX 4 8 0 -4
BITMAP
6000
9000
9000
9000
e000
8000
8000
8000
ENDCHAR
STARTCHAR theta
ENCODING -1 113
SWIDTH 0 0
DWIDTH 5 0
BBX 4 7 0 -1
BITMAP
6000
9000
9000
f000
9000
9000
6000
ENDCHAR
STARTCHAR pi
ENCODING -1 112
SWIDTH 0 0
DWIDTH 6 0
BBX 5 5 0 -1
BITMAP
f800
5000
5000
5800
d000
ENDCHAR
STARTCHAR omicron
ENCODING -1 111
SWIDTH 0 0
DWIDTH 5 0
BBX 4 5 0 -1
BITMAP
6000
9000
9000
9000
6000
ENDCHAR
STARTCHAR nu
ENCODING -1 110
SWIDTH 0 0
DWIDTH 6 0
BBX 5 5 0 -1
BITMAP
8800
8800
5000
5000
2000
ENDCHAR
STARTCHAR mu
ENCODING -1 109
SWIDTH 0 0
DWIDTH 6 0
BBX 6 7 -1 -3
BITMAP
4800
4800
4800
4800
7400
4000
c000
ENDCHAR
STARTCHAR lambda
ENCODING -1 108
SWIDTH 0 0
DWIDTH 6 0
BBX 6 8 0 -1
BITMAP
c000
a000
2000
2000
5000
5000
9400
8800
ENDCHAR
STARTCHAR kappa
ENCODING -1 107
SWIDTH 0 0
DWIDTH 6 0
BBX 5 5 0 -1
BITMAP
4800
d800
6000
5000
4800
ENDCHAR
STARTCHAR phi1
ENCODING -1 106
SWIDTH 0 0
DWIDTH 6 0
BBX 5 7 0 -3
BITMAP
3000
a800
a800
a800
7000
2000
2000
ENDCHAR
STARTCHAR iota
ENCODING -1 105
SWIDTH 0 0
DWIDTH 4 0
BBX 3 5 0 -1
BITMAP
c000
4000
4000
4000
6000
ENDCHAR
STARTCHAR eta
ENCODING -1 104
SWIDTH 0 0
DWIDTH 6 0
BBX 5 7 0 -3
BITMAP
5800
e800
4800
4800
4800
0800
0800
ENDCHAR
STARTCHAR gamma
ENCODING -1 103
SWIDTH 0 0
DWIDTH 6 0
BBX 5 7 0 -3
BITMAP
c800
a800
2800
3000
1000
2000
2000
ENDCHAR
STARTCHAR phi
ENCODING -1 102
SWIDTH 0 0
DWIDTH 6 0
BBX 5 9 0 -3
BITMAP
2000
2000
7000
a800
a800
a800
7000
2000
2000
ENDCHAR
STARTCHAR epsilon
ENCODING -1 101
SWIDTH 0 0
DWIDTH 5 0
BBX 4 5 0 -1
BITMAP
6000
9000
c000
9000
6000
ENDCHAR
STARTCHAR delta
ENCODING -1 100
SWIDTH 0 0
DWIDTH 5 0
BBX 4 8 0 -1
BITMAP
6000
9000
4000
6000
9000
9000
9000
6000
ENDCHAR
STARTCHAR chi
ENCODING -1 99
SWIDTH 0 0
DWIDTH 6 0
BBX 5 7 0 -3
BITMAP
c800
5000
5000
2000
5000
5000
9800
ENDCHAR
STARTCHAR beta
ENCODING -1 98
SWIDTH 0 0
DWIDTH 5 0
BBX 4 10 0 -3
BITMAP
6000
9000
9000
a000
9000
9000
d000
a000
8000
8000
ENDCHAR
STARTCHAR alpha
ENCODING -1 97
SWIDTH 0 0
DWIDTH 7 0
BBX 6 5 0 -1
BITMAP
6800
a800
9000
9400
6800
ENDCHAR
STARTCHAR radicalex
ENCODING -1 96
SWIDTH 0 0
DWIDTH 5 0
BBX 6 1 4 8
BITMAP
fc00
ENDCHAR
STARTCHAR underscore
ENCODING -1 95
SWIDTH 0 0
DWIDTH 5 0
BBX 5 1 0 -4
BITMAP
f800
ENDCHAR
STARTCHAR perpendicular
ENCODING -1 94
SWIDTH 0 0
DWIDTH 7 0
BBX 5 7 1 -1
BITMAP
2000
2000
2000
2000
2000
2000
f800
ENDCHAR
STARTCHAR bracketright
ENCODING -1 93
SWIDTH 0 0
DWIDTH 3 0
BBX 2 9 1 -3
BITMAP
c000
4000
4000
4000
4000
4000
4000
4000
c000
ENDCHAR
STARTCHAR therefore
ENCODING -1 92
SWIDTH 0 0
DWIDTH 7 0
BBX 5 5 1 -1
BITMAP
2000
0000
0000
0000
8800
ENDCHAR
STARTCHAR bracketleft
ENCODING -1 91
SWIDTH 0 0
DWIDTH 3 0
BBX 2 9 0 -3
BITMAP
c000
8000
8000
8000
8000
8000
8000
8000
c000
ENDCHAR
STARTCHAR Zeta
ENCODING -1 90
SWIDTH 0 0
DWIDTH 6 0
BBX 5 7 0 -1
BITMAP
f800
8800
1000
2000
4000
8800
f800
ENDCHAR
STARTCHAR Psi
ENCODING -1 89
SWIDTH 0 0
DWIDTH 9 0
BBX 9 7 0 -1
BITMAP
dd80
4900
4900
3e00
0800
0800
1c00
ENDCHAR
STARTCHAR Xi
ENCODING -1 88
SWIDTH 0 0
DWIDTH 7 0
BBX 6 7 0 -1
BITMAP
7800
4800
0000
3000
0000
8400
fc00
ENDCHAR
STARTCHAR Omega
ENCODING -1 87
SWIDTH 0 0
DWIDTH 9 0
BBX 8 7 0 -1
BITMAP
3c00
6600
4200
4200
6600
a500
e700
ENDCHAR
STARTCHAR sigma1
ENCODING -1 86
SWIDTH 0 0
DWIDTH 5 0
BBX 4 7 0 -3
BITMAP
7000
8000
8000
8000
6000
1000
6000
ENDCHAR
STARTCHAR Upsilon
ENCODING -1 85
SWIDTH 0 0
DWIDTH 8 0
BBX 7 7 0 -1
BITMAP
ee00
4400
2800
3800
1000
1000
3800
ENDCHAR
STARTCHAR Tau
ENCODING -1 84
SWIDTH 0 0
DWIDTH 6 0
BBX 5 7 0 -1
BITMAP
f800
a800
2000
2000
2000
2000
7000
ENDCHAR
STARTCHAR Sigma
ENCODING -1 83
SWIDTH 0 0
DWIDTH 6 0
BBX 5 7 0 -1
BITMAP
f800
8800
4000
2000
4000
8800
f800
ENDCHAR
STARTCHAR Rho
ENCODING -1 82
SWIDTH 0 0
DWIDTH 6 0
BBX 5 7 0 -1
BITMAP
f000
4800
4800
7000
4000
4000
e000
ENDCHAR
STARTCHAR Theta
ENCODING -1 81
SWIDTH 0 0
DWIDTH 7 0
BBX 6 7 0 -1
BITMAP
7800
cc00
8400
b400
8400
cc00
7800
ENDCHAR
STARTCHAR Pi
ENCODING -1 80
SWIDTH 0 0
DWIDTH 8 0
BBX 7 7 0 -1
BITMAP
fe00
4400
4400
4400
4400
4400
ee00
ENDCHAR
STARTCHAR Omicron
ENCODING -1 79
SWIDTH 0 0
DWIDTH 7 0
BBX 6 7 0 -1
BITMAP
7800
cc00
8400
8400
8400
cc00
7800
ENDCHAR
STARTCHAR Nu
ENCODING -1 78
SWIDTH 0 0
DWIDTH 8 0
BBX 7 7 0 -1
BITMAP
ee00
6400
5400
5400
4c00
4c00
e400
ENDCHAR
STARTCHAR Mu
ENCODING -1 77
SWIDTH 0 0
DWIDTH 10 0
BBX 9 7 0 -1
BITMAP
e380
6300
5500
5500
5d00
4900
eb80
ENDCHAR
STARTCHAR Lambda
ENCODING -1 76
SWIDTH 0 0
DWIDTH 7 0
BBX 7 7 0 -1
BITMAP
1000
1000
2800
2800
4400
4400
ee00
ENDCHAR
STARTCHAR Kappa
ENCODING -1 75
SWIDTH 0 0
DWIDTH 7 0
BBX 6 7 0 -1
BITMAP
ec00
4800
5000
6000
5000
4800
ec00
ENDCHAR
STARTCHAR theta1
ENCODING -1 74
SWIDTH 0 0
DWIDTH 7 0
BBX 6 7 0 -1
BITMAP
1000
2800
9800
4c00
4800
4800
3000
ENDCHAR
STARTCHAR Iota
ENCODING -1 73
SWIDTH 0 0
DWIDTH 3 0
BBX 3 7 0 -1
BITMAP
e000
4000
4000
4000
4000
4000
e000
ENDCHAR
STARTCHAR Eta
ENCODING -1 72
SWIDTH 0 0
DWIDTH 8 0
BBX 7 7 0 -1
BITMAP
ee00
4400
4400
7c00
4400
4400
ee00
ENDCHAR
STARTCHAR Gamma
ENCODING -1 71
SWIDTH 0 0
DWIDTH 6 0
BBX 5 7 0 -1
BITMAP
f800
4800
4000
4000
4000
4000
e000
ENDCHAR
STARTCHAR Phi
ENCODING -1 70
SWIDTH 0 0
DWIDTH 8 0
BBX 7 7 0 -1
BITMAP
3800
1000
7c00
9200
7c00
1000
3800
ENDCHAR
STARTCHAR Epsilon
ENCODING -1 69
SWIDTH 0 0
DWIDTH 6 0
BBX 5 7 0 -1
BITMAP
f800
4800
4000
7000
4000
4800
f800
ENDCHAR
STARTCHAR Delta
ENCODING -1 68
SWIDTH 0 0
DWIDTH 7 0
BBX 6 7 0 -1
BITMAP
3000
3000
5800
4800
8c00
8400
fc00
ENDCHAR
STARTCHAR Chi
ENCODING -1 67
SWIDTH 0 0
DWIDTH 8 0
BBX 7 7 0 -1
BITMAP
ee00
4400
2800
1000
2800
4400
ee00
ENDCHAR
STARTCHAR Beta
ENCODING -1 66
SWIDTH 0 0
DWIDTH 6 0
BBX 5 7 0 -1
BITMAP
f000
4800
4800
7000
4800
4800
f000
ENDCHAR
STARTCHAR Alpha
ENCODING -1 65
SWIDTH 0 0
DWIDTH 8 0
BBX 7 7 0 -1
BITMAP
1000
3800
2800
2800
7c00
4400
ee00
ENDCHAR
STARTCHAR congruent
ENCODING -1 64
SWIDTH 0 0
DWIDTH 6 0
BBX 5 6 0 -1
BITMAP
6800
b000
0000
f800
0000
f800
ENDCHAR
STARTCHAR question
ENCODING -1 63
SWIDTH 0 0
DWIDTH 5 0
BBX 3 7 1 -1
BITMAP
e000
a000
2000
4000
4000
0000
4000
ENDCHAR
STARTCHAR greater
ENCODING -1 62
SWIDTH 0 0
DWIDTH 6 0
BBX 6 5 0 -1
BITMAP
c000
3000
0c00
3000
c000
ENDCHAR
STARTCHAR equal
ENCODING -1 61
SWIDTH 0 0
DWIDTH 6 0
BBX 5 3 0 0
BITMAP
f800
0000
f800
ENDCHAR
STARTCHAR less
ENCODING -1 60
SWIDTH 0 0
DWIDTH 7 0
BBX 6 5 0 -1
BITMAP
0c00
3000
c000
3000
0c00
ENDCHAR
STARTCHAR semicolon
ENCODING -1 59
SWIDTH 0 0
DWIDTH 2 0
BBX 1 7 1 -3
BITMAP
8000
0000
0000
0000
8000
8000
8000
ENDCHAR
STARTCHAR colon
ENCODING -1 58
SWIDTH 0 0
DWIDTH 2 0
BBX 1 5 1 -1
BITMAP
8000
0000
0000
0000
8000
ENDCHAR
STARTCHAR nine
ENCODING -1 57
SWIDTH 0 0
DWIDTH 5 0
BBX 4 7 0 -1
BITMAP
6000
9000
9000
9000
7000
2000
c000
ENDCHAR
STARTCHAR eight
ENCODING -1 56
SWIDTH 0 0
DWIDTH 5 0
BBX 4 7 0 -1
BITMAP
6000
9000
9000
6000
9000
9000
6000
ENDCHAR
STARTCHAR seven
ENCODING -1 55
SWIDTH 0 0
DWIDTH 5 0
BBX 4 7 0 -1
BITMAP
f000
9000
2000
2000
4000
4000
4000
ENDCHAR
STARTCHAR six
ENCODING -1 54
SWIDTH 0 0
DWIDTH 5 0
BBX 4 7 0 -1
BITMAP
7000
8000
e000
9000
9000
9000
6000
ENDCHAR
STARTCHAR five
ENCODING -1 53
SWIDTH 0 0
DWIDTH 5 0
BBX 4 7 0 -1
BITMAP
7000
4000
e000
1000
1000
1000
e000
ENDCHAR
STARTCHAR four
ENCODING -1 52
SWIDTH 0 0
DWIDTH 5 0
BBX 5 7 0 -1
BITMAP
1000
3000
5000
9000
f800
1000
1000
ENDCHAR
STARTCHAR three
ENCODING -1 51
SWIDTH 0 0
DWIDTH 5 0
BBX 4 7 0 -1
BITMAP
6000
9000
1000
6000
1000
1000
e000
ENDCHAR
STARTCHAR two
ENCODING -1 50
SWIDTH 0 0
DWIDTH 5 0
BBX 4 7 0 -1
BITMAP
6000
9000
1000
2000
2000
4000
f000
ENDCHAR
STARTCHAR one
ENCODING -1 49
SWIDTH 0 0
DWIDTH 5 0
BBX 3 7 1 -1
BITMAP
4000
c000
4000
4000
4000
4000
e000
ENDCHAR
STARTCHAR zero
ENCODING -1 48
SWIDTH 0 0
DWIDTH 5 0
BBX 4 7 0 -1
BITMAP
6000
9000
9000
9000
9000
9000
6000
ENDCHAR
STARTCHAR slash
ENCODING -1 47
SWIDTH 0 0
DWIDTH 3 0
BBX 3 7 0 -1
BITMAP
2000
2000
4000
4000
4000
8000
8000
ENDCHAR
STARTCHAR period
ENCODING -1 46
SWIDTH 0 0
DWIDTH 2 0
BBX 1 1 1 -1
BITMAP
8000
ENDCHAR
STARTCHAR minus
ENCODING -1 45
SWIDTH 0 0
DWIDTH 6 0
BBX 5 1 0 1
BITMAP
f800
ENDCHAR
STARTCHAR comma
ENCODING -1 44
SWIDTH 0 0
DWIDTH 2 0
BBX 1 3 1 -3
BITMAP
8000
8000
8000
ENDCHAR
STARTCHAR plus
ENCODING -1 43
SWIDTH 0 0
DWIDTH 6 0
BBX 5 5 0 -1
BITMAP
2000
2000
f800
2000
2000
ENDCHAR
STARTCHAR asteriskmath
ENCODING -1 42
SWIDTH 0 0
DWIDTH 5 0
BBX 3 3 1 1
BITMAP
a000
4000
a000
ENDCHAR
STARTCHAR parenright
ENCODING -1 41
SWIDTH 0 0
DWIDTH 4 0
BBX 3 9 1 -3
BITMAP
8000
4000
4000
2000
2000
2000
4000
4000
8000
ENDCHAR
STARTCHAR parenleft
ENCODING -1 40
SWIDTH 0 0
DWIDTH 4 0
BBX 3 9 0 -3
BITMAP
2000
4000
4000
8000
8000
8000
4000
4000
2000
ENDCHAR
STARTCHAR suchthat
ENCODING -1 39
SWIDTH 0 0
DWIDTH 5 0
BBX 4 5 0 -1
BITMAP
e000
1000
7000
1000
e000
ENDCHAR
STARTCHAR ampersand
ENCODING -1 38
SWIDTH 0 0
DWIDTH 7 0
BBX 6 7 0 -1
BITMAP
2000
5000
5000
6c00
9800
9800
6c00
ENDCHAR
STARTCHAR percent
ENCODING -1 37
SWIDTH 0 0
DWIDTH 8 0
BBX 7 7 0 -1
BITMAP
6400
bc00
a800
5600
2a00
2a00
4400
ENDCHAR
STARTCHAR existential
ENCODING -1 36
SWIDTH 0 0
DWIDTH 6 0
BBX 5 7 0 -1
BITMAP
f800
0800
0800
7800
0800
0800
f800
ENDCHAR
STARTCHAR numbersign
ENCODING -1 35
SWIDTH 0 0
DWIDTH 5 0
BBX 5 7 0 -1
BITMAP
5000
5000
f800
5000
f800
5000
5000
ENDCHAR
STARTCHAR universal
ENCODING -1 34
SWIDTH 0 0
DWIDTH 7 0
BBX 7 7 0 -1
BITMAP
8200
4400
7c00
2800
2800
1000
1000
ENDCHAR
STARTCHAR exclam
ENCODING -1 33
SWIDTH 0 0
DWIDTH 3 0
BBX 1 7 1 -1
BITMAP
8000
8000
8000
8000
8000
0000
8000
ENDCHAR
STARTCHAR space
ENCODING -1 32
SWIDTH 0 0
DWIDTH 3 0
BBX 1 1 0 -1
BITMAP
0000
ENDCHAR
ENDFONT
